<svg xmlns="http://www.w3.org/2000/svg" version="1.1" xmlns:xlink="http://www.w3.org/1999/xlink" xmlns:svgjs="http://svgjs.com/svgjs" width="1920" height="800" preserveAspectRatio="none" viewBox="0 0 1920 800"><g mask="url(&quot;#SvgjsMask1044&quot;)" fill="none"><rect width="1920" height="800" x="0" y="0" fill="#1e3266"></rect><path d="M2080 800L0 800 L0 364.14Q49.73 253.87, 160 303.6Q252.66 236.26, 320 328.92Q326.61 239.53, 416 246.14Q470.87 141.01, 576 195.88Q692.56 152.44, 736 268.99Q823.95 260.94, 832 348.9Q840.57 197.47, 992 206.04Q1056.71 110.76, 1152 175.47Q1283.73 147.2, 1312 278.93Q1407.6 214.53, 1472 310.13Q1520.17 198.31, 1632 246.48Q1696.3 214.78, 1728 279.08Q1788.79 243.87, 1824 304.66Q1887.87 272.53, 1920 336.4Q1991.97 248.37, 2080 320.33z" fill="#182f5d"></path><path d="M1984 800L0 800 L0 454.03Q82.62 440.65, 96 523.27Q130.36 461.63, 192 495.98Q210.24 418.22, 288 436.46Q361.43 349.88, 448 423.31Q495.71 311.02, 608 358.74Q647.44 302.18, 704 341.62Q846.73 324.35, 864 467.07Q946.96 454.03, 960 536.99Q1025.62 442.61, 1120 508.23Q1138.25 430.48, 1216 448.73Q1264.2 336.93, 1376 385.13Q1398.02 311.15, 1472 333.18Q1514 279.18, 1568 321.18Q1709.31 302.49, 1728 443.79Q1786.49 406.28, 1824 464.78Q1925.92 406.7, 1984 508.63z" fill="#25467d"></path><path d="M1952 800L0 800 L0 583.85Q94.28 518.13, 160 612.42Q179.44 471.86, 320 491.29Q408.73 420.02, 480 508.75Q631.51 500.26, 640 651.78Q705.76 621.54, 736 687.3Q741.81 597.11, 832 602.92Q872.22 483.13, 992 523.35Q1019.7 455.05, 1088 482.75Q1145.13 443.88, 1184 501.01Q1245.13 466.14, 1280 527.27Q1372.32 523.59, 1376 615.91Q1481.09 561, 1536 666.08Q1606.35 576.43, 1696 646.79Q1767.1 557.89, 1856 628.99Q1859.56 536.55, 1952 540.11z" fill="#356cb1"></path><path d="M2016 800L0 800 L0 783.74Q39.93 663.67, 160 703.61Q193.54 641.15, 256 674.7Q310.48 633.18, 352 687.67Q411.15 586.82, 512 645.97Q631.7 605.67, 672 725.38Q807.8 701.18, 832 836.98Q877.76 722.74, 992 768.5Q988.5 669, 1088 665.5Q1158.08 575.58, 1248 645.66Q1315.37 617.02, 1344 684.39Q1435.05 679.44, 1440 770.49Q1510.43 744.92, 1536 815.35Q1581.06 700.41, 1696 745.47Q1738.46 627.93, 1856 670.39Q1950.01 604.4, 2016 698.41z" fill="white"></path></g><defs><mask id="SvgjsMask1044"><rect width="1920" height="800" fill="#ffffff"></rect></mask></defs></svg>