<svg xmlns="http://www.w3.org/2000/svg" version="1.1" xmlns:xlink="http://www.w3.org/1999/xlink" xmlns:svgjs="http://svgjs.com/svgjs" width="1920" height="800" preserveAspectRatio="none" viewBox="0 0 1920 800"><g mask="url(&quot;#SvgjsMask1069&quot;)" fill="none"><rect width="1920" height="800" x="0" y="0" fill="#1e3266"></rect><path d="M2080 800L0 800 L0 463.12Q99.69 402.81, 160 502.51Q257.27 439.78, 320 537.06Q330.81 451.87, 416 462.67Q490.38 377.05, 576 451.42Q649.56 428.98, 672 502.53Q689.17 423.7, 768 440.87Q866.94 379.81, 928 478.75Q992.7 447.45, 1024 512.16Q1045.28 437.44, 1120 458.72Q1157.38 400.1, 1216 437.47Q1255.88 381.35, 1312 421.22Q1378.69 391.91, 1408 458.6Q1445.56 400.16, 1504 437.72Q1599.46 373.19, 1664 468.65Q1714.3 358.95, 1824 409.25Q1883.38 372.63, 1920 432.02Q2027.36 379.38, 2080 486.74z" fill="#182f5d"></path><path d="M2016 800L0 800 L0 559.68Q22.16 485.84, 96 508Q184.47 436.47, 256 524.94Q381.49 490.43, 416 615.93Q458.53 562.46, 512 605Q551.5 548.5, 608 588.01Q618.18 502.19, 704 512.37Q761.45 473.82, 800 531.26Q892.99 464.25, 960 557.24Q1034.47 471.72, 1120 546.19Q1190.47 456.66, 1280 527.14Q1382.09 469.23, 1440 571.32Q1540.92 512.25, 1600 613.17Q1666.62 519.78, 1760 586.4Q1790.88 521.27, 1856 552.15Q1944.94 481.09, 2016 570.03z" fill="#25467d"></path><path d="M2016 800L0 800 L0 661.34Q58.82 624.16, 96 682.99Q146.99 573.98, 256 624.97Q349.81 558.78, 416 652.58Q506.42 647, 512 737.42Q562.7 628.12, 672 678.81Q731.99 578.79, 832 638.78Q919.42 566.2, 992 653.63Q1102.54 604.17, 1152 714.71Q1196.16 598.87, 1312 643.03Q1353.94 588.97, 1408 630.91Q1514.99 577.9, 1568 684.89Q1610.03 630.91, 1664 672.94Q1687.16 600.1, 1760 623.26Q1817.53 584.79, 1856 642.32Q1959.61 585.93, 2016 689.54z" fill="#356cb1"></path><path d="M1952 800L0 800 L0 774.46Q87.19 701.65, 160 788.84Q171.71 704.55, 256 716.26Q347.63 647.89, 416 739.53Q524.78 688.31, 576 797.08Q639.6 700.68, 736 764.28Q818.99 751.27, 832 834.26Q893.35 735.61, 992 796.96Q1024.65 669.61, 1152 702.26Q1205.97 660.23, 1248 714.2Q1343.87 714.07, 1344 809.93Q1429.64 735.57, 1504 821.2Q1520.32 741.52, 1600 757.84Q1628.63 690.47, 1696 719.1Q1790.02 653.12, 1856 747.14Q1947 742.13, 1952 833.13z" fill="white"></path></g><defs><mask id="SvgjsMask1069"><rect width="1920" height="800" fill="#ffffff"></rect></mask></defs></svg>