<svg xmlns="http://www.w3.org/2000/svg" version="1.1" xmlns:xlink="http://www.w3.org/1999/xlink" xmlns:svgjs="http://svgjs.com/svgjs" width="1440" height="560" preserveAspectRatio="none" viewBox="0 0 1440 560"><g mask="url(&quot;#SvgjsMask1026&quot;)" fill="none"><rect width="1440" height="560" x="0" y="0" fill="rgba(37, 70, 125, 1)"></rect><path d="M-73.86 342.19L-73.86 342.19" stroke="#132e65" stroke-width="1.5"></path><path d="M-73.86 342.19L66.7 351.33" stroke="#132e65" stroke-width="1.5"></path><path d="M-73.86 342.19L-49.9 548.55" stroke="#132e65" stroke-width="1.5"></path><path d="M-73.86 342.19L87.57 500.44" stroke="#132e65" stroke-width="1.5"></path><path d="M-49.9 548.55L-49.9 548.55" stroke="#132e65" stroke-width="1.5"></path><path d="M-49.9 548.55L-104.45 662.23" stroke="#132e65" stroke-width="1.5"></path><path d="M-49.9 548.55L87.57 500.44" stroke="#132e65" stroke-width="1.5"></path><path d="M-104.45 662.23L-104.45 662.23" stroke="#132e65" stroke-width="1.5"></path><path d="M-104.45 662.23L105.71 679.86" stroke="#132e65" stroke-width="1.5"></path><path d="M-104.45 662.23L87.57 500.44" stroke="#132e65" stroke-width="1.5"></path><path d="M66.7 351.33L66.7 351.33" stroke="#132e65" stroke-width="1.5"></path><path d="M66.7 351.33L87.57 500.44" stroke="#132e65" stroke-width="1.5"></path><path d="M66.7 351.33L216.88 393.15" stroke="#132e65" stroke-width="1.5"></path><path d="M66.7 351.33L-49.9 548.55" stroke="#132e65" stroke-width="1.5"></path><path d="M66.7 351.33L249.81 519.31" stroke="#132e65" stroke-width="1.5"></path><path d="M87.57 500.44L87.57 500.44" stroke="#132e65" stroke-width="1.5"></path><path d="M87.57 500.44L249.81 519.31" stroke="#132e65" stroke-width="1.5"></path><path d="M87.57 500.44L216.88 393.15" stroke="#132e65" stroke-width="1.5"></path><path d="M105.71 679.86L105.71 679.86" stroke="#132e65" stroke-width="1.5"></path><path d="M105.71 679.86L237.45 694.78" stroke="#132e65" stroke-width="1.5"></path><path d="M105.71 679.86L87.57 500.44" stroke="#132e65" stroke-width="1.5"></path><path d="M105.71 679.86L-49.9 548.55" stroke="#132e65" stroke-width="1.5"></path><path d="M216.88 393.15L216.88 393.15" stroke="#132e65" stroke-width="1.5"></path><path d="M216.88 393.15L249.81 519.31" stroke="#132e65" stroke-width="1.5"></path><path d="M216.88 393.15L350.32 351.54" stroke="#132e65" stroke-width="1.5"></path><path d="M249.81 519.31L249.81 519.31" stroke="#132e65" stroke-width="1.5"></path><path d="M237.45 694.78L237.45 694.78" stroke="#132e65" stroke-width="1.5"></path><path d="M237.45 694.78L337.83 646.49" stroke="#132e65" stroke-width="1.5"></path><path d="M350.32 351.54L350.32 351.54" stroke="#132e65" stroke-width="1.5"></path><path d="M350.32 351.54L540.36 353.6" stroke="#132e65" stroke-width="1.5"></path><path d="M350.32 351.54L249.81 519.31" stroke="#132e65" stroke-width="1.5"></path><path d="M350.32 351.54L410.67 560.6" stroke="#132e65" stroke-width="1.5"></path><path d="M410.67 560.6L410.67 560.6" stroke="#132e65" stroke-width="1.5"></path><path d="M410.67 560.6L337.83 646.49" stroke="#132e65" stroke-width="1.5"></path><path d="M410.67 560.6L249.81 519.31" stroke="#132e65" stroke-width="1.5"></path><path d="M410.67 560.6L560.35 641.38" stroke="#132e65" stroke-width="1.5"></path><path d="M410.67 560.6L237.45 694.78" stroke="#132e65" stroke-width="1.5"></path><path d="M337.83 646.49L337.83 646.49" stroke="#132e65" stroke-width="1.5"></path><path d="M540.36 353.6L540.36 353.6" stroke="#132e65" stroke-width="1.5"></path><path d="M540.36 353.6L671.08 398.43" stroke="#132e65" stroke-width="1.5"></path><path d="M540.36 353.6L645.15 237.72" stroke="#132e65" stroke-width="1.5"></path><path d="M540.36 353.6L707.7 497.78" stroke="#132e65" stroke-width="1.5"></path><path d="M540.36 353.6L410.67 560.6" stroke="#132e65" stroke-width="1.5"></path><path d="M540.36 353.6L814.6 347.55" stroke="#132e65" stroke-width="1.5"></path><path d="M560.35 641.38L560.35 641.38" stroke="#132e65" stroke-width="1.5"></path><path d="M560.35 641.38L676.07 708.9" stroke="#132e65" stroke-width="1.5"></path><path d="M560.35 641.38L707.7 497.78" stroke="#132e65" stroke-width="1.5"></path><path d="M560.35 641.38L337.83 646.49" stroke="#132e65" stroke-width="1.5"></path><path d="M645.15 237.72L645.15 237.72" stroke="#132e65" stroke-width="1.5"></path><path d="M645.15 237.72L671.08 398.43" stroke="#132e65" stroke-width="1.5"></path><path d="M645.15 237.72L814.6 347.55" stroke="#132e65" stroke-width="1.5"></path><path d="M645.15 237.72L857.03 211.89" stroke="#132e65" stroke-width="1.5"></path><path d="M645.15 237.72L707.7 497.78" stroke="#132e65" stroke-width="1.5"></path><path d="M645.15 237.72L350.32 351.54" stroke="#132e65" stroke-width="1.5"></path><path d="M671.08 398.43L671.08 398.43" stroke="#132e65" stroke-width="1.5"></path><path d="M671.08 398.43L707.7 497.78" stroke="#132e65" stroke-width="1.5"></path><path d="M707.7 497.78L707.7 497.78" stroke="#132e65" stroke-width="1.5"></path><path d="M707.7 497.78L828.28 548.78" stroke="#132e65" stroke-width="1.5"></path><path d="M676.07 708.9L676.07 708.9" stroke="#132e65" stroke-width="1.5"></path><path d="M676.07 708.9L809.81 666.24" stroke="#132e65" stroke-width="1.5"></path><path d="M676.07 708.9L707.7 497.78" stroke="#132e65" stroke-width="1.5"></path><path d="M676.07 708.9L828.28 548.78" stroke="#132e65" stroke-width="1.5"></path><path d="M676.07 708.9L960.63 709.15" stroke="#132e65" stroke-width="1.5"></path><path d="M857.03 211.89L857.03 211.89" stroke="#132e65" stroke-width="1.5"></path><path d="M857.03 211.89L814.6 347.55" stroke="#132e65" stroke-width="1.5"></path><path d="M857.03 211.89L1008.19 208.7" stroke="#132e65" stroke-width="1.5"></path><path d="M857.03 211.89L971.67 71.56" stroke="#132e65" stroke-width="1.5"></path><path d="M814.6 347.55L814.6 347.55" stroke="#132e65" stroke-width="1.5"></path><path d="M814.6 347.55L952.05 367.62" stroke="#132e65" stroke-width="1.5"></path><path d="M828.28 548.78L828.28 548.78" stroke="#132e65" stroke-width="1.5"></path><path d="M828.28 548.78L809.81 666.24" stroke="#132e65" stroke-width="1.5"></path><path d="M809.81 666.24L809.81 666.24" stroke="#132e65" stroke-width="1.5"></path><path d="M950.65 -86.37L950.65 -86.37" stroke="#132e65" stroke-width="1.5"></path><path d="M950.65 -86.37L1096.27 -51.64" stroke="#132e65" stroke-width="1.5"></path><path d="M950.65 -86.37L971.67 71.56" stroke="#132e65" stroke-width="1.5"></path><path d="M950.65 -86.37L1119.64 44.71" stroke="#132e65" stroke-width="1.5"></path><path d="M971.67 71.56L971.67 71.56" stroke="#132e65" stroke-width="1.5"></path><path d="M971.67 71.56L1008.19 208.7" stroke="#132e65" stroke-width="1.5"></path><path d="M971.67 71.56L1119.64 44.71" stroke="#132e65" stroke-width="1.5"></path><path d="M1008.19 208.7L1008.19 208.7" stroke="#132e65" stroke-width="1.5"></path><path d="M1008.19 208.7L1144.86 192.74" stroke="#132e65" stroke-width="1.5"></path><path d="M952.05 367.62L952.05 367.62" stroke="#132e65" stroke-width="1.5"></path><path d="M952.05 367.62L986.73 520.81" stroke="#132e65" stroke-width="1.5"></path><path d="M952.05 367.62L1008.19 208.7" stroke="#132e65" stroke-width="1.5"></path><path d="M952.05 367.62L1128.87 347.52" stroke="#132e65" stroke-width="1.5"></path><path d="M986.73 520.81L986.73 520.81" stroke="#132e65" stroke-width="1.5"></path><path d="M986.73 520.81L1125.86 515.1" stroke="#132e65" stroke-width="1.5"></path><path d="M986.73 520.81L828.28 548.78" stroke="#132e65" stroke-width="1.5"></path><path d="M960.63 709.15L960.63 709.15" stroke="#132e65" stroke-width="1.5"></path><path d="M960.63 709.15L809.81 666.24" stroke="#132e65" stroke-width="1.5"></path><path d="M960.63 709.15L1121.68 645.4" stroke="#132e65" stroke-width="1.5"></path><path d="M960.63 709.15L986.73 520.81" stroke="#132e65" stroke-width="1.5"></path><path d="M960.63 709.15L828.28 548.78" stroke="#132e65" stroke-width="1.5"></path><path d="M960.63 709.15L1125.86 515.1" stroke="#132e65" stroke-width="1.5"></path><path d="M1096.27 -51.64L1096.27 -51.64" stroke="#132e65" stroke-width="1.5"></path><path d="M1096.27 -51.64L1119.64 44.71" stroke="#132e65" stroke-width="1.5"></path><path d="M1096.27 -51.64L971.67 71.56" stroke="#132e65" stroke-width="1.5"></path><path d="M1096.27 -51.64L1245.44 49.79" stroke="#132e65" stroke-width="1.5"></path><path d="M1096.27 -51.64L1284.3 -39.69" stroke="#132e65" stroke-width="1.5"></path><path d="M1096.27 -51.64L1144.86 192.74" stroke="#132e65" stroke-width="1.5"></path><path d="M1119.64 44.71L1119.64 44.71" stroke="#132e65" stroke-width="1.5"></path><path d="M1119.64 44.71L1245.44 49.79" stroke="#132e65" stroke-width="1.5"></path><path d="M1119.64 44.71L1144.86 192.74" stroke="#132e65" stroke-width="1.5"></path><path d="M1144.86 192.74L1144.86 192.74" stroke="#132e65" stroke-width="1.5"></path><path d="M1144.86 192.74L1128.87 347.52" stroke="#132e65" stroke-width="1.5"></path><path d="M1144.86 192.74L1298.3 220.42" stroke="#132e65" stroke-width="1.5"></path><path d="M1144.86 192.74L1245.44 49.79" stroke="#132e65" stroke-width="1.5"></path><path d="M1128.87 347.52L1128.87 347.52" stroke="#132e65" stroke-width="1.5"></path><path d="M1128.87 347.52L1244.1 385.16" stroke="#132e65" stroke-width="1.5"></path><path d="M1125.86 515.1L1125.86 515.1" stroke="#132e65" stroke-width="1.5"></path><path d="M1125.86 515.1L1121.68 645.4" stroke="#132e65" stroke-width="1.5"></path><path d="M1125.86 515.1L1259.93 547.38" stroke="#132e65" stroke-width="1.5"></path><path d="M1125.86 515.1L1128.87 347.52" stroke="#132e65" stroke-width="1.5"></path><path d="M1125.86 515.1L1244.1 385.16" stroke="#132e65" stroke-width="1.5"></path><path d="M1121.68 645.4L1121.68 645.4" stroke="#132e65" stroke-width="1.5"></path><path d="M1121.68 645.4L1259.93 547.38" stroke="#132e65" stroke-width="1.5"></path><path d="M1121.68 645.4L986.73 520.81" stroke="#132e65" stroke-width="1.5"></path><path d="M1121.68 645.4L1303.26 706.33" stroke="#132e65" stroke-width="1.5"></path><path d="M1121.68 645.4L1244.1 385.16" stroke="#132e65" stroke-width="1.5"></path><path d="M1284.3 -39.69L1284.3 -39.69" stroke="#132e65" stroke-width="1.5"></path><path d="M1284.3 -39.69L1245.44 49.79" stroke="#132e65" stroke-width="1.5"></path><path d="M1284.3 -39.69L1441.32 -100.91" stroke="#132e65" stroke-width="1.5"></path><path d="M1284.3 -39.69L1420.38 63.41" stroke="#132e65" stroke-width="1.5"></path><path d="M1245.44 49.79L1245.44 49.79" stroke="#132e65" stroke-width="1.5"></path><path d="M1245.44 49.79L1420.38 63.41" stroke="#132e65" stroke-width="1.5"></path><path d="M1245.44 49.79L1298.3 220.42" stroke="#132e65" stroke-width="1.5"></path><path d="M1298.3 220.42L1298.3 220.42" stroke="#132e65" stroke-width="1.5"></path><path d="M1298.3 220.42L1461.69 230.67" stroke="#132e65" stroke-width="1.5"></path><path d="M1298.3 220.42L1244.1 385.16" stroke="#132e65" stroke-width="1.5"></path><path d="M1298.3 220.42L1420.38 63.41" stroke="#132e65" stroke-width="1.5"></path><path d="M1244.1 385.16L1244.1 385.16" stroke="#132e65" stroke-width="1.5"></path><path d="M1244.1 385.16L1259.93 547.38" stroke="#132e65" stroke-width="1.5"></path><path d="M1259.93 547.38L1259.93 547.38" stroke="#132e65" stroke-width="1.5"></path><path d="M1259.93 547.38L1405.03 547.36" stroke="#132e65" stroke-width="1.5"></path><path d="M1303.26 706.33L1303.26 706.33" stroke="#132e65" stroke-width="1.5"></path><path d="M1303.26 706.33L1452.78 647.38" stroke="#132e65" stroke-width="1.5"></path><path d="M1303.26 706.33L1259.93 547.38" stroke="#132e65" stroke-width="1.5"></path><path d="M1303.26 706.33L1405.03 547.36" stroke="#132e65" stroke-width="1.5"></path><path d="M1441.32 -100.91L1441.32 -100.91" stroke="#132e65" stroke-width="1.5"></path><path d="M1441.32 -100.91L1588.82 -90.4" stroke="#132e65" stroke-width="1.5"></path><path d="M1441.32 -100.91L1420.38 63.41" stroke="#132e65" stroke-width="1.5"></path><path d="M1441.32 -100.91L1571.84 48.22" stroke="#132e65" stroke-width="1.5"></path><path d="M1441.32 -100.91L1245.44 49.79" stroke="#132e65" stroke-width="1.5"></path><path d="M1420.38 63.41L1420.38 63.41" stroke="#132e65" stroke-width="1.5"></path><path d="M1420.38 63.41L1571.84 48.22" stroke="#132e65" stroke-width="1.5"></path><path d="M1461.69 230.67L1461.69 230.67" stroke="#132e65" stroke-width="1.5"></path><path d="M1461.69 230.67L1460.03 349.91" stroke="#132e65" stroke-width="1.5"></path><path d="M1461.69 230.67L1599.92 233.53" stroke="#132e65" stroke-width="1.5"></path><path d="M1460.03 349.91L1460.03 349.91" stroke="#132e65" stroke-width="1.5"></path><path d="M1460.03 349.91L1587.68 411.15" stroke="#132e65" stroke-width="1.5"></path><path d="M1460.03 349.91L1599.92 233.53" stroke="#132e65" stroke-width="1.5"></path><path d="M1460.03 349.91L1405.03 547.36" stroke="#132e65" stroke-width="1.5"></path><path d="M1405.03 547.36L1405.03 547.36" stroke="#132e65" stroke-width="1.5"></path><path d="M1405.03 547.36L1452.78 647.38" stroke="#132e65" stroke-width="1.5"></path><path d="M1405.03 547.36L1541 546.91" stroke="#132e65" stroke-width="1.5"></path><path d="M1452.78 647.38L1452.78 647.38" stroke="#132e65" stroke-width="1.5"></path><path d="M1452.78 647.38L1573.91 701.86" stroke="#132e65" stroke-width="1.5"></path><path d="M1452.78 647.38L1541 546.91" stroke="#132e65" stroke-width="1.5"></path><path d="M1588.82 -90.4L1588.82 -90.4" stroke="#132e65" stroke-width="1.5"></path><path d="M1588.82 -90.4L1571.84 48.22" stroke="#132e65" stroke-width="1.5"></path><path d="M1588.82 -90.4L1420.38 63.41" stroke="#132e65" stroke-width="1.5"></path><path d="M1588.82 -90.4L1284.3 -39.69" stroke="#132e65" stroke-width="1.5"></path><path d="M1571.84 48.22L1571.84 48.22" stroke="#132e65" stroke-width="1.5"></path><path d="M1571.84 48.22L1599.92 233.53" stroke="#132e65" stroke-width="1.5"></path><path d="M1599.92 233.53L1599.92 233.53" stroke="#132e65" stroke-width="1.5"></path><path d="M1599.92 233.53L1587.68 411.15" stroke="#132e65" stroke-width="1.5"></path><path d="M1587.68 411.15L1587.68 411.15" stroke="#132e65" stroke-width="1.5"></path><path d="M1587.68 411.15L1541 546.91" stroke="#132e65" stroke-width="1.5"></path><path d="M1587.68 411.15L1461.69 230.67" stroke="#132e65" stroke-width="1.5"></path><path d="M1587.68 411.15L1405.03 547.36" stroke="#132e65" stroke-width="1.5"></path><path d="M1587.68 411.15L1452.78 647.38" stroke="#132e65" stroke-width="1.5"></path><path d="M1541 546.91L1541 546.91" stroke="#132e65" stroke-width="1.5"></path><path d="M1573.91 701.86L1573.91 701.86" stroke="#132e65" stroke-width="1.5"></path><path d="M1573.91 701.86L1541 546.91" stroke="#132e65" stroke-width="1.5"></path><path d="M1573.91 701.86L1405.03 547.36" stroke="#132e65" stroke-width="1.5"></path><path d="M1573.91 701.86L1303.26 706.33" stroke="#132e65" stroke-width="1.5"></path><path d="M1573.91 701.86L1587.68 411.15" stroke="#132e65" stroke-width="1.5"></path><circle r="5" cx="-73.86" cy="342.19" fill="#132e65"></circle><circle r="5" cx="-49.9" cy="548.55" fill="#132e65"></circle><circle r="5" cx="-104.45" cy="662.23" fill="#132e65"></circle><circle r="5" cx="66.7" cy="351.33" fill="#132e65"></circle><circle r="5" cx="87.57" cy="500.44" fill="#132e65"></circle><circle r="5" cx="105.71" cy="679.86" fill="#132e65"></circle><circle r="5" cx="216.88" cy="393.15" fill="#132e65"></circle><circle r="5" cx="249.81" cy="519.31" fill="#132e65"></circle><circle r="5" cx="237.45" cy="694.78" fill="#132e65"></circle><circle r="5" cx="350.32" cy="351.54" fill="#132e65"></circle><circle r="5" cx="410.67" cy="560.6" fill="#132e65"></circle><circle r="5" cx="337.83" cy="646.49" fill="#132e65"></circle><circle r="5" cx="540.36" cy="353.6" fill="#132e65"></circle><circle r="5" cx="560.35" cy="641.38" fill="#132e65"></circle><circle r="5" cx="645.15" cy="237.72" fill="#132e65"></circle><circle r="5" cx="671.08" cy="398.43" fill="#132e65"></circle><circle r="5" cx="707.7" cy="497.78" fill="#132e65"></circle><circle r="5" cx="676.07" cy="708.9" fill="#132e65"></circle><circle r="5" cx="857.03" cy="211.89" fill="#132e65"></circle><circle r="5" cx="814.6" cy="347.55" fill="#132e65"></circle><circle r="5" cx="828.28" cy="548.78" fill="#132e65"></circle><circle r="5" cx="809.81" cy="666.24" fill="#132e65"></circle><circle r="5" cx="950.65" cy="-86.37" fill="#132e65"></circle><circle r="5" cx="971.67" cy="71.56" fill="#132e65"></circle><circle r="5" cx="1008.19" cy="208.7" fill="#132e65"></circle><circle r="5" cx="952.05" cy="367.62" fill="#132e65"></circle><circle r="5" cx="986.73" cy="520.81" fill="#132e65"></circle><circle r="5" cx="960.63" cy="709.15" fill="#132e65"></circle><circle r="5" cx="1096.27" cy="-51.64" fill="#132e65"></circle><circle r="5" cx="1119.64" cy="44.71" fill="#132e65"></circle><circle r="5" cx="1144.86" cy="192.74" fill="#132e65"></circle><circle r="5" cx="1128.87" cy="347.52" fill="#132e65"></circle><circle r="5" cx="1125.86" cy="515.1" fill="#132e65"></circle><circle r="5" cx="1121.68" cy="645.4" fill="#132e65"></circle><circle r="5" cx="1284.3" cy="-39.69" fill="#132e65"></circle><circle r="5" cx="1245.44" cy="49.79" fill="#132e65"></circle><circle r="5" cx="1298.3" cy="220.42" fill="#132e65"></circle><circle r="5" cx="1244.1" cy="385.16" fill="#132e65"></circle><circle r="5" cx="1259.93" cy="547.38" fill="#132e65"></circle><circle r="5" cx="1303.26" cy="706.33" fill="#132e65"></circle><circle r="5" cx="1441.32" cy="-100.91" fill="#132e65"></circle><circle r="5" cx="1420.38" cy="63.41" fill="#132e65"></circle><circle r="5" cx="1461.69" cy="230.67" fill="#132e65"></circle><circle r="5" cx="1460.03" cy="349.91" fill="#132e65"></circle><circle r="5" cx="1405.03" cy="547.36" fill="#132e65"></circle><circle r="5" cx="1452.78" cy="647.38" fill="#132e65"></circle><circle r="5" cx="1588.82" cy="-90.4" fill="#132e65"></circle><circle r="5" cx="1571.84" cy="48.22" fill="#132e65"></circle><circle r="5" cx="1599.92" cy="233.53" fill="#132e65"></circle><circle r="5" cx="1587.68" cy="411.15" fill="#132e65"></circle><circle r="5" cx="1541" cy="546.91" fill="#132e65"></circle><circle r="5" cx="1573.91" cy="701.86" fill="#132e65"></circle><path d="M193.86 661.17L193.86 661.17" stroke="hsl(231.60000000000002, 82.1%, 90.2%)" stroke-width="1.5"></path><path d="M193.86 661.17L40.58 658.85" stroke="hsl(231.60000000000002, 82.1%, 90.2%)" stroke-width="1.5"></path><path d="M193.86 661.17L248.96 490.08" stroke="hsl(231.60000000000002, 82.1%, 90.2%)" stroke-width="1.5"></path><path d="M193.86 661.17L65.38 525.04" stroke="hsl(231.60000000000002, 82.1%, 90.2%)" stroke-width="1.5"></path><path d="M193.86 661.17L403.06 654.74" stroke="hsl(231.60000000000002, 82.1%, 90.2%)" stroke-width="1.5"></path><path d="M193.86 661.17L-44.33 683.75" stroke="hsl(231.60000000000002, 82.1%, 90.2%)" stroke-width="1.5"></path><path d="M193.86 661.17L408 534.22" stroke="hsl(231.60000000000002, 82.1%, 90.2%)" stroke-width="1.5"></path><path d="M408 534.22L408 534.22" stroke="hsl(231.60000000000002, 82.1%, 90.2%)" stroke-width="1.5"></path><path d="M408 534.22L403.06 654.74" stroke="hsl(231.60000000000002, 82.1%, 90.2%)" stroke-width="1.5"></path><path d="M408 534.22L560.36 501.92" stroke="hsl(231.60000000000002, 82.1%, 90.2%)" stroke-width="1.5"></path><path d="M408 534.22L248.96 490.08" stroke="hsl(231.60000000000002, 82.1%, 90.2%)" stroke-width="1.5"></path><path d="M403.06 654.74L403.06 654.74" stroke="hsl(231.60000000000002, 82.1%, 90.2%)" stroke-width="1.5"></path><path d="M953.7 408.9L953.7 408.9" stroke="hsl(231.60000000000002, 82.1%, 90.2%)" stroke-width="1.5"></path><path d="M953.7 408.9L951.7 498.34" stroke="hsl(231.60000000000002, 82.1%, 90.2%)" stroke-width="1.5"></path><path d="M951.7 498.34L951.7 498.34" stroke="hsl(231.60000000000002, 82.1%, 90.2%)" stroke-width="1.5"></path><path d="M951.7 498.34L812.91 557.61" stroke="hsl(231.60000000000002, 82.1%, 90.2%)" stroke-width="1.5"></path><path d="M951.7 498.34L1101.41 546.82" stroke="hsl(231.60000000000002, 82.1%, 90.2%)" stroke-width="1.5"></path><path d="M951.7 498.34L820.71 379.63" stroke="hsl(231.60000000000002, 82.1%, 90.2%)" stroke-width="1.5"></path><path d="M951.7 498.34L1134.41 365.04" stroke="hsl(231.60000000000002, 82.1%, 90.2%)" stroke-width="1.5"></path><path d="M951.7 498.34L795.84 668.84" stroke="hsl(231.60000000000002, 82.1%, 90.2%)" stroke-width="1.5"></path><path d="M1446.96 250.5L1446.96 250.5" stroke="hsl(231.60000000000002, 82.1%, 90.2%)" stroke-width="1.5"></path><path d="M1446.96 250.5L1576.45 201.48" stroke="hsl(231.60000000000002, 82.1%, 90.2%)" stroke-width="1.5"></path><path d="M1446.96 250.5L1388.31 404.43" stroke="hsl(231.60000000000002, 82.1%, 90.2%)" stroke-width="1.5"></path><path d="M1446.96 250.5L1285.05 206.26" stroke="hsl(231.60000000000002, 82.1%, 90.2%)" stroke-width="1.5"></path><path d="M1446.96 250.5L1412.49 74.37" stroke="hsl(231.60000000000002, 82.1%, 90.2%)" stroke-width="1.5"></path><path d="M1446.96 250.5L1282.01 347.71" stroke="hsl(231.60000000000002, 82.1%, 90.2%)" stroke-width="1.5"></path><path d="M1446.96 250.5L1594.81 58.59" stroke="hsl(231.60000000000002, 82.1%, 90.2%)" stroke-width="1.5"></path><path d="M1401.76 710.09L1401.76 710.09" stroke="hsl(231.60000000000002, 82.1%, 90.2%)" stroke-width="1.5"></path><path d="M1401.76 710.09L1309.13 672.28" stroke="hsl(231.60000000000002, 82.1%, 90.2%)" stroke-width="1.5"></path><path d="M1401.76 710.09L1588.42 691.69" stroke="hsl(231.60000000000002, 82.1%, 90.2%)" stroke-width="1.5"></path><path d="M1401.76 710.09L1422.73 511.1" stroke="hsl(231.60000000000002, 82.1%, 90.2%)" stroke-width="1.5"></path><path d="M1594.81 58.59L1594.81 58.59" stroke="hsl(231.60000000000002, 82.1%, 90.2%)" stroke-width="1.5"></path><path d="M1594.81 58.59L1537.52 -42.07" stroke="hsl(231.60000000000002, 82.1%, 90.2%)" stroke-width="1.5"></path><path d="M1594.81 58.59L1576.45 201.48" stroke="hsl(231.60000000000002, 82.1%, 90.2%)" stroke-width="1.5"></path><path d="M-94.13 493.53L-94.13 493.53" stroke="hsl(231.60000000000002, 82.1%, 90.2%)" stroke-width="1.5"></path><path d="M-94.13 493.53L65.38 525.04" stroke="hsl(231.60000000000002, 82.1%, 90.2%)" stroke-width="1.5"></path><path d="M-94.13 493.53L-44.33 683.75" stroke="hsl(231.60000000000002, 82.1%, 90.2%)" stroke-width="1.5"></path><path d="M-44.33 683.75L-44.33 683.75" stroke="hsl(231.60000000000002, 82.1%, 90.2%)" stroke-width="1.5"></path><path d="M-44.33 683.75L40.58 658.85" stroke="hsl(231.60000000000002, 82.1%, 90.2%)" stroke-width="1.5"></path><path d="M-44.33 683.75L65.38 525.04" stroke="hsl(231.60000000000002, 82.1%, 90.2%)" stroke-width="1.5"></path><path d="M65.38 525.04L65.38 525.04" stroke="hsl(231.60000000000002, 82.1%, 90.2%)" stroke-width="1.5"></path><path d="M65.38 525.04L40.58 658.85" stroke="hsl(231.60000000000002, 82.1%, 90.2%)" stroke-width="1.5"></path><path d="M40.58 658.85L40.58 658.85" stroke="hsl(231.60000000000002, 82.1%, 90.2%)" stroke-width="1.5"></path><path d="M248.96 490.08L248.96 490.08" stroke="hsl(231.60000000000002, 82.1%, 90.2%)" stroke-width="1.5"></path><path d="M248.96 490.08L65.38 525.04" stroke="hsl(231.60000000000002, 82.1%, 90.2%)" stroke-width="1.5"></path><path d="M560.36 501.92L560.36 501.92" stroke="hsl(231.60000000000002, 82.1%, 90.2%)" stroke-width="1.5"></path><path d="M560.36 501.92L710.68 535.02" stroke="hsl(231.60000000000002, 82.1%, 90.2%)" stroke-width="1.5"></path><path d="M560.36 501.92L652.17 378.21" stroke="hsl(231.60000000000002, 82.1%, 90.2%)" stroke-width="1.5"></path><path d="M560.36 501.92L403.06 654.74" stroke="hsl(231.60000000000002, 82.1%, 90.2%)" stroke-width="1.5"></path><path d="M560.36 501.92L689.16 682.92" stroke="hsl(231.60000000000002, 82.1%, 90.2%)" stroke-width="1.5"></path><path d="M560.36 501.92L812.91 557.61" stroke="hsl(231.60000000000002, 82.1%, 90.2%)" stroke-width="1.5"></path><path d="M652.17 378.21L652.17 378.21" stroke="hsl(231.60000000000002, 82.1%, 90.2%)" stroke-width="1.5"></path><path d="M652.17 378.21L710.68 535.02" stroke="hsl(231.60000000000002, 82.1%, 90.2%)" stroke-width="1.5"></path><path d="M652.17 378.21L820.71 379.63" stroke="hsl(231.60000000000002, 82.1%, 90.2%)" stroke-width="1.5"></path><path d="M652.17 378.21L812.91 557.61" stroke="hsl(231.60000000000002, 82.1%, 90.2%)" stroke-width="1.5"></path><path d="M652.17 378.21L408 534.22" stroke="hsl(231.60000000000002, 82.1%, 90.2%)" stroke-width="1.5"></path><path d="M652.17 378.21L953.7 408.9" stroke="hsl(231.60000000000002, 82.1%, 90.2%)" stroke-width="1.5"></path><path d="M710.68 535.02L710.68 535.02" stroke="hsl(231.60000000000002, 82.1%, 90.2%)" stroke-width="1.5"></path><path d="M710.68 535.02L812.91 557.61" stroke="hsl(231.60000000000002, 82.1%, 90.2%)" stroke-width="1.5"></path><path d="M710.68 535.02L689.16 682.92" stroke="hsl(231.60000000000002, 82.1%, 90.2%)" stroke-width="1.5"></path><path d="M689.16 682.92L689.16 682.92" stroke="hsl(231.60000000000002, 82.1%, 90.2%)" stroke-width="1.5"></path><path d="M689.16 682.92L795.84 668.84" stroke="hsl(231.60000000000002, 82.1%, 90.2%)" stroke-width="1.5"></path><path d="M820.71 379.63L820.71 379.63" stroke="hsl(231.60000000000002, 82.1%, 90.2%)" stroke-width="1.5"></path><path d="M820.71 379.63L953.7 408.9" stroke="hsl(231.60000000000002, 82.1%, 90.2%)" stroke-width="1.5"></path><path d="M812.91 557.61L812.91 557.61" stroke="hsl(231.60000000000002, 82.1%, 90.2%)" stroke-width="1.5"></path><path d="M812.91 557.61L795.84 668.84" stroke="hsl(231.60000000000002, 82.1%, 90.2%)" stroke-width="1.5"></path><path d="M795.84 668.84L795.84 668.84" stroke="hsl(231.60000000000002, 82.1%, 90.2%)" stroke-width="1.5"></path><path d="M795.84 668.84L710.68 535.02" stroke="hsl(231.60000000000002, 82.1%, 90.2%)" stroke-width="1.5"></path><path d="M1154.84 55.17L1154.84 55.17" stroke="hsl(231.60000000000002, 82.1%, 90.2%)" stroke-width="1.5"></path><path d="M1154.84 55.17L1303.34 -38.43" stroke="hsl(231.60000000000002, 82.1%, 90.2%)" stroke-width="1.5"></path><path d="M1154.84 55.17L1285.05 206.26" stroke="hsl(231.60000000000002, 82.1%, 90.2%)" stroke-width="1.5"></path><path d="M1154.84 55.17L1141.66 255.92" stroke="hsl(231.60000000000002, 82.1%, 90.2%)" stroke-width="1.5"></path><path d="M1141.66 255.92L1141.66 255.92" stroke="hsl(231.60000000000002, 82.1%, 90.2%)" stroke-width="1.5"></path><path d="M1141.66 255.92L1134.41 365.04" stroke="hsl(231.60000000000002, 82.1%, 90.2%)" stroke-width="1.5"></path><path d="M1141.66 255.92L1285.05 206.26" stroke="hsl(231.60000000000002, 82.1%, 90.2%)" stroke-width="1.5"></path><path d="M1134.41 365.04L1134.41 365.04" stroke="hsl(231.60000000000002, 82.1%, 90.2%)" stroke-width="1.5"></path><path d="M1134.41 365.04L1282.01 347.71" stroke="hsl(231.60000000000002, 82.1%, 90.2%)" stroke-width="1.5"></path><path d="M1134.41 365.04L1261.09 490.95" stroke="hsl(231.60000000000002, 82.1%, 90.2%)" stroke-width="1.5"></path><path d="M1134.41 365.04L1101.41 546.82" stroke="hsl(231.60000000000002, 82.1%, 90.2%)" stroke-width="1.5"></path><path d="M1101.41 546.82L1101.41 546.82" stroke="hsl(231.60000000000002, 82.1%, 90.2%)" stroke-width="1.5"></path><path d="M1101.41 546.82L1261.09 490.95" stroke="hsl(231.60000000000002, 82.1%, 90.2%)" stroke-width="1.5"></path><path d="M1101.41 546.82L1154.81 712.09" stroke="hsl(231.60000000000002, 82.1%, 90.2%)" stroke-width="1.5"></path><path d="M1101.41 546.82L953.7 408.9" stroke="hsl(231.60000000000002, 82.1%, 90.2%)" stroke-width="1.5"></path><path d="M1154.81 712.09L1154.81 712.09" stroke="hsl(231.60000000000002, 82.1%, 90.2%)" stroke-width="1.5"></path><path d="M1154.81 712.09L1309.13 672.28" stroke="hsl(231.60000000000002, 82.1%, 90.2%)" stroke-width="1.5"></path><path d="M1154.81 712.09L1261.09 490.95" stroke="hsl(231.60000000000002, 82.1%, 90.2%)" stroke-width="1.5"></path><path d="M1154.81 712.09L1401.76 710.09" stroke="hsl(231.60000000000002, 82.1%, 90.2%)" stroke-width="1.5"></path><path d="M1154.81 712.09L951.7 498.34" stroke="hsl(231.60000000000002, 82.1%, 90.2%)" stroke-width="1.5"></path><path d="M1303.34 -38.43L1303.34 -38.43" stroke="hsl(231.60000000000002, 82.1%, 90.2%)" stroke-width="1.5"></path><path d="M1303.34 -38.43L1438.43 -80.61" stroke="hsl(231.60000000000002, 82.1%, 90.2%)" stroke-width="1.5"></path><path d="M1303.34 -38.43L1412.49 74.37" stroke="hsl(231.60000000000002, 82.1%, 90.2%)" stroke-width="1.5"></path><path d="M1303.34 -38.43L1537.52 -42.07" stroke="hsl(231.60000000000002, 82.1%, 90.2%)" stroke-width="1.5"></path><path d="M1303.34 -38.43L1285.05 206.26" stroke="hsl(231.60000000000002, 82.1%, 90.2%)" stroke-width="1.5"></path><path d="M1285.05 206.26L1285.05 206.26" stroke="hsl(231.60000000000002, 82.1%, 90.2%)" stroke-width="1.5"></path><path d="M1285.05 206.26L1282.01 347.71" stroke="hsl(231.60000000000002, 82.1%, 90.2%)" stroke-width="1.5"></path><path d="M1282.01 347.71L1282.01 347.71" stroke="hsl(231.60000000000002, 82.1%, 90.2%)" stroke-width="1.5"></path><path d="M1282.01 347.71L1388.31 404.43" stroke="hsl(231.60000000000002, 82.1%, 90.2%)" stroke-width="1.5"></path><path d="M1282.01 347.71L1261.09 490.95" stroke="hsl(231.60000000000002, 82.1%, 90.2%)" stroke-width="1.5"></path><path d="M1261.09 490.95L1261.09 490.95" stroke="hsl(231.60000000000002, 82.1%, 90.2%)" stroke-width="1.5"></path><path d="M1261.09 490.95L1388.31 404.43" stroke="hsl(231.60000000000002, 82.1%, 90.2%)" stroke-width="1.5"></path><path d="M1261.09 490.95L1422.73 511.1" stroke="hsl(231.60000000000002, 82.1%, 90.2%)" stroke-width="1.5"></path><path d="M1309.13 672.28L1309.13 672.28" stroke="hsl(231.60000000000002, 82.1%, 90.2%)" stroke-width="1.5"></path><path d="M1309.13 672.28L1261.09 490.95" stroke="hsl(231.60000000000002, 82.1%, 90.2%)" stroke-width="1.5"></path><path d="M1438.43 -80.61L1438.43 -80.61" stroke="hsl(231.60000000000002, 82.1%, 90.2%)" stroke-width="1.5"></path><path d="M1438.43 -80.61L1537.52 -42.07" stroke="hsl(231.60000000000002, 82.1%, 90.2%)" stroke-width="1.5"></path><path d="M1438.43 -80.61L1412.49 74.37" stroke="hsl(231.60000000000002, 82.1%, 90.2%)" stroke-width="1.5"></path><path d="M1412.49 74.37L1412.49 74.37" stroke="hsl(231.60000000000002, 82.1%, 90.2%)" stroke-width="1.5"></path><path d="M1412.49 74.37L1537.52 -42.07" stroke="hsl(231.60000000000002, 82.1%, 90.2%)" stroke-width="1.5"></path><path d="M1388.31 404.43L1388.31 404.43" stroke="hsl(231.60000000000002, 82.1%, 90.2%)" stroke-width="1.5"></path><path d="M1388.31 404.43L1422.73 511.1" stroke="hsl(231.60000000000002, 82.1%, 90.2%)" stroke-width="1.5"></path><path d="M1388.31 404.43L1285.05 206.26" stroke="hsl(231.60000000000002, 82.1%, 90.2%)" stroke-width="1.5"></path><path d="M1388.31 404.43L1580.67 519.18" stroke="hsl(231.60000000000002, 82.1%, 90.2%)" stroke-width="1.5"></path><path d="M1422.73 511.1L1422.73 511.1" stroke="hsl(231.60000000000002, 82.1%, 90.2%)" stroke-width="1.5"></path><path d="M1422.73 511.1L1580.67 519.18" stroke="hsl(231.60000000000002, 82.1%, 90.2%)" stroke-width="1.5"></path><path d="M1537.52 -42.07L1537.52 -42.07" stroke="hsl(231.60000000000002, 82.1%, 90.2%)" stroke-width="1.5"></path><path d="M1576.45 201.48L1576.45 201.48" stroke="hsl(231.60000000000002, 82.1%, 90.2%)" stroke-width="1.5"></path><path d="M1576.45 201.48L1412.49 74.37" stroke="hsl(231.60000000000002, 82.1%, 90.2%)" stroke-width="1.5"></path><path d="M1580.67 519.18L1580.67 519.18" stroke="hsl(231.60000000000002, 82.1%, 90.2%)" stroke-width="1.5"></path><path d="M1580.67 519.18L1588.42 691.69" stroke="hsl(231.60000000000002, 82.1%, 90.2%)" stroke-width="1.5"></path><path d="M1588.42 691.69L1588.42 691.69" stroke="hsl(231.60000000000002, 82.1%, 90.2%)" stroke-width="1.5"></path><path d="M1588.42 691.69L1422.73 511.1" stroke="hsl(231.60000000000002, 82.1%, 90.2%)" stroke-width="1.5"></path><circle r="25" cx="193.86" cy="661.17" fill="url(#SvgjsRadialGradient1027)"></circle><circle r="25" cx="408" cy="534.22" fill="url(#SvgjsRadialGradient1027)"></circle><circle r="25" cx="403.06" cy="654.74" fill="url(#SvgjsRadialGradient1027)"></circle><circle r="25" cx="953.7" cy="408.9" fill="url(#SvgjsRadialGradient1027)"></circle><circle r="25" cx="951.7" cy="498.34" fill="url(#SvgjsRadialGradient1027)"></circle><circle r="25" cx="1446.96" cy="250.5" fill="url(#SvgjsRadialGradient1027)"></circle><circle r="25" cx="1401.76" cy="710.09" fill="url(#SvgjsRadialGradient1027)"></circle><circle r="25" cx="1594.81" cy="58.59" fill="url(#SvgjsRadialGradient1027)"></circle><circle r="5" cx="-94.13" cy="493.53" fill="#b8c1f8"></circle><circle r="5" cx="-44.33" cy="683.75" fill="#b8c1f8"></circle><circle r="5" cx="65.38" cy="525.04" fill="#b8c1f8"></circle><circle r="5" cx="40.58" cy="658.85" fill="#b8c1f8"></circle><circle r="5" cx="248.96" cy="490.08" fill="#b8c1f8"></circle><circle r="5" cx="560.36" cy="501.92" fill="#b8c1f8"></circle><circle r="5" cx="652.17" cy="378.21" fill="#b8c1f8"></circle><circle r="5" cx="710.68" cy="535.02" fill="#b8c1f8"></circle><circle r="5" cx="689.16" cy="682.92" fill="#b8c1f8"></circle><circle r="5" cx="820.71" cy="379.63" fill="#b8c1f8"></circle><circle r="5" cx="812.91" cy="557.61" fill="#b8c1f8"></circle><circle r="5" cx="795.84" cy="668.84" fill="#b8c1f8"></circle><circle r="5" cx="1154.84" cy="55.17" fill="#b8c1f8"></circle><circle r="5" cx="1141.66" cy="255.92" fill="#b8c1f8"></circle><circle r="5" cx="1134.41" cy="365.04" fill="#b8c1f8"></circle><circle r="5" cx="1101.41" cy="546.82" fill="#b8c1f8"></circle><circle r="5" cx="1154.81" cy="712.09" fill="#b8c1f8"></circle><circle r="5" cx="1303.34" cy="-38.43" fill="#b8c1f8"></circle><circle r="5" cx="1285.05" cy="206.26" fill="#b8c1f8"></circle><circle r="5" cx="1282.01" cy="347.71" fill="#b8c1f8"></circle><circle r="5" cx="1261.09" cy="490.95" fill="#b8c1f8"></circle><circle r="5" cx="1309.13" cy="672.28" fill="#b8c1f8"></circle><circle r="5" cx="1438.43" cy="-80.61" fill="#b8c1f8"></circle><circle r="5" cx="1412.49" cy="74.37" fill="#b8c1f8"></circle><circle r="5" cx="1388.31" cy="404.43" fill="#b8c1f8"></circle><circle r="5" cx="1422.73" cy="511.1" fill="#b8c1f8"></circle><circle r="5" cx="1537.52" cy="-42.07" fill="#b8c1f8"></circle><circle r="5" cx="1576.45" cy="201.48" fill="#b8c1f8"></circle><circle r="5" cx="1580.67" cy="519.18" fill="#b8c1f8"></circle><circle r="5" cx="1588.42" cy="691.69" fill="#b8c1f8"></circle></g><defs><mask id="SvgjsMask1026"><rect width="1440" height="560" fill="#ffffff"></rect></mask><radialGradient id="SvgjsRadialGradient1027"><stop stop-color="#ffffff" offset="0.1"></stop><stop stop-color="rgba(113, 131, 241, 1)" offset="0.2"></stop><stop stop-color="rgba(113, 131, 241, 0)" offset="1"></stop></radialGradient></defs></svg>