<svg xmlns="http://www.w3.org/2000/svg" version="1.1" xmlns:xlink="http://www.w3.org/1999/xlink" xmlns:svgjs="http://svgjs.com/svgjs" width="1440" height="560" preserveAspectRatio="none" viewBox="0 0 1440 560"><g mask="url(&quot;#SvgjsMask5183&quot;)" fill="none"><rect width="1440" height="560" x="0" y="0" fill="rgba(37, 70, 125, 1)"></rect><g transform="translate(331.2, 44.8)" stroke-linecap="round" stroke="url(#SvgjsLinearGradient5184)"><path d="M370 257.89 L370 302.11" stroke-width="15"></path><path d="M390 162 L390 398" stroke-width="15"></path><path d="M410 250.92 L410 309.08" stroke-width="15"></path><path d="M430 229.89 L430 330.11" stroke-width="15"></path><path d="M450 197.9 L450 362.1" stroke-width="15"></path><path d="M470 165.24 L470 394.76" stroke-width="15"></path><path d="M490 235.74 L490 324.26" stroke-width="15"></path><path d="M510 181.25 L510 378.75" stroke-width="15"></path><path d="M530 201.31 L530 358.69" stroke-width="15"></path><path d="M550 169.56 L550 390.44" stroke-width="15"></path><path d="M570 263.35 L570 296.65" stroke-width="15"></path><path d="M590 237.1 L590 322.89" stroke-width="15"></path><path d="M610 201.16 L610 358.85" stroke-width="15"></path><path d="M630 223.09 L630 336.9" stroke-width="15"></path><path d="M650 255.81 L650 304.19" stroke-width="15"></path><path d="M670 249.25 L670 310.75" stroke-width="15"></path><path d="M690 195.44 L690 364.56" stroke-width="15"></path><path d="M710 150.04 L710 409.96" stroke-width="15"></path><path d="M730 256.18 L730 303.82" stroke-width="15"></path><path d="M750 241.97 L750 318.02" stroke-width="15"></path><path d="M770 206.09 L770 353.9" stroke-width="15"></path><path d="M790 250.36 L790 309.64" stroke-width="15"></path><path d="M810 181.53 L810 378.48" stroke-width="15"></path><path d="M830 215.9 L830 344.1" stroke-width="15"></path><path d="M850 244.71 L850 315.29" stroke-width="15"></path><path d="M870 179.06 L870 380.94" stroke-width="15"></path><path d="M890 185.41 L890 374.6" stroke-width="15"></path><path d="M910 177.96 L910 382.04" stroke-width="15"></path><path d="M930 188.22 L930 371.77" stroke-width="15"></path><path d="M950 221.7 L950 338.3" stroke-width="15"></path><path d="M970 161.97 L970 398.03" stroke-width="15"></path><path d="M990 212.53 L990 347.48" stroke-width="15"></path><path d="M1010 204.5 L1010 355.5" stroke-width="15"></path><path d="M1030 235.48 L1030 324.52" stroke-width="15"></path><path d="M1050 169.38 L1050 390.62" stroke-width="15"></path><path d="M1070 161.21 L1070 398.79" stroke-width="15"></path></g></g><defs><mask id="SvgjsMask5183"><rect width="1440" height="560" fill="#ffffff"></rect></mask><linearGradient x1="720" y1="140" x2="720" y2="420" gradientUnits="userSpaceOnUse" id="SvgjsLinearGradient5184"><stop stop-color="#3a7cc3" offset="0"></stop><stop stop-color="rgba(183, 220, 241, 1)" offset="1"></stop></linearGradient></defs></svg>